<svg width="192" height="192" viewBox="0 0 192 192" fill="none" xmlns="http://www.w3.org/2000/svg">
<rect width="192" height="192" rx="48" fill="url(#paint0_radial_898_35)"/>
<path d="M96.0001 160C60.6906 160 32 131.284 32 96C32 60.7163 60.7163 32 96.0001 32C131.284 32 160 60.7163 160 96C160 131.284 131.284 160 96.0001 160ZM96.0001 37.1251C63.5493 37.1251 37.1509 63.5235 37.1509 95.9742C37.1509 128.425 63.5493 154.823 96.0001 154.823C128.451 154.823 154.849 128.425 154.849 95.9742C154.849 63.5235 128.451 37.1251 96.0001 37.1251Z" fill="white"/>
<path d="M74 126.403V64H95.8141C100.167 64 103.747 64.7469 106.58 66.2406C109.413 67.7344 111.499 69.7433 112.889 72.2415C114.28 74.7397 114.95 77.5211 114.95 80.5859C114.95 83.2644 114.486 85.4794 113.533 87.2307C112.58 88.982 111.344 90.3469 109.825 91.3771C108.305 92.4073 106.631 93.1542 104.854 93.6435V94.2616C106.76 94.3904 108.691 95.0599 110.623 96.2704C112.555 97.4808 114.177 99.2323 115.465 101.524C116.753 103.817 117.422 106.572 117.422 109.869C117.422 113.165 116.701 115.818 115.285 118.316C113.868 120.814 111.627 122.798 108.537 124.266C105.472 125.734 101.48 126.455 96.561 126.455H74V126.403ZM81.5461 91.4285H95.5566C97.823 91.4285 99.8834 90.9908 101.738 90.0894C103.566 89.188 105.034 87.9259 106.116 86.3034C107.198 84.6808 107.738 82.7751 107.738 80.5859C107.738 77.856 106.786 75.5122 104.88 73.5806C102.974 71.649 99.9349 70.6961 95.7884 70.6961H81.5204V91.4285H81.5461ZM81.5461 119.707H96.5352C101.48 119.707 104.983 118.754 107.069 116.823C109.155 114.891 110.185 112.573 110.185 109.817C110.185 107.705 109.644 105.748 108.563 103.945C107.481 102.143 105.961 100.7 103.953 99.6186C101.969 98.5369 99.6 97.996 96.8701 97.996H81.5204V119.681L81.5461 119.707Z" fill="white"/>
<path d="M160.951 58.115C159.148 58.115 157.448 57.7803 155.877 57.1107C154.306 56.4411 152.916 55.4881 151.705 54.3034C150.495 53.1187 149.568 51.7279 148.898 50.1311C148.228 48.5601 147.894 46.8604 147.894 45.0576C147.894 43.2548 148.228 41.5549 148.898 39.9838C149.568 38.4128 150.495 37.0221 151.705 35.8116C152.916 34.6012 154.281 33.6739 155.877 33.0043C157.474 32.3347 159.148 32 160.951 32C162.754 32 164.454 32.3347 166.025 33.0043C167.596 33.6739 168.986 34.6012 170.197 35.8116C171.407 37.0221 172.335 38.3871 173.004 39.9838C173.674 41.5549 174.009 43.2548 174.009 45.0576C174.009 46.8604 173.674 48.5601 173.004 50.1311C172.335 51.7022 171.382 53.0929 170.197 54.3034C169.012 55.5138 167.621 56.4411 166.025 57.1107C164.454 57.7803 162.754 58.115 160.951 58.115ZM160.951 57.0591C163.166 57.0591 165.201 56.5183 167.003 55.4366C168.832 54.3549 170.274 52.9126 171.356 51.0841C172.438 49.2555 172.978 47.2467 172.978 45.0318C172.978 42.8169 172.438 40.7822 171.356 38.9794C170.274 37.1508 168.832 35.7085 167.003 34.6269C165.175 33.5452 163.166 33.0043 160.951 33.0043C158.736 33.0043 156.727 33.5452 154.899 34.6269C153.07 35.7085 151.628 37.1508 150.546 38.9794C149.465 40.808 148.924 42.8169 148.924 45.0318C148.924 47.2467 149.465 49.2555 150.546 51.0841C151.628 52.9126 153.07 54.3549 154.899 55.4366C156.727 56.5183 158.736 57.0591 160.951 57.0591ZM156.805 50.9295V38.8764H161.956C162.78 38.8764 163.475 39.0309 164.042 39.34C164.608 39.649 165.046 40.0868 165.355 40.6019C165.664 41.117 165.793 41.761 165.793 42.4563C165.793 43.1517 165.638 43.7698 165.355 44.3364C165.072 44.903 164.608 45.3151 164.042 45.6499C163.475 45.9589 162.78 46.1392 161.956 46.1392H157.345V45.0832H161.93C162.883 45.0832 163.578 44.8515 164.067 44.3622C164.531 43.8986 164.789 43.2547 164.789 42.4563C164.789 41.658 164.557 41.014 164.067 40.5762C163.604 40.1383 162.883 39.9067 161.93 39.9067H157.861V50.9038H156.805V50.9295ZM163.346 45.5211L166.308 50.9295H165.098L162.187 45.5211H163.321H163.346Z" fill="white"/>
<defs>
<radialGradient id="paint0_radial_898_35" cx="0" cy="0" r="1" gradientTransform="matrix(176.32 346.88 -333.016 373.66 -9.28001 -72.32)" gradientUnits="userSpaceOnUse">
<stop stop-color="#2C53F0"/>
<stop offset="1" stop-color="#39ACCD"/>
</radialGradient>
</defs>
</svg>
